<svg id="Ebene_1" data-name="Ebene 1" xmlns="http://www.w3.org/2000/svg" viewBox="0 0 256 256"><title>explore</title><path d="M129.09,49.36a77.67,77.67,0,0,1,5.8,155.12c-2,.15-4,.23-6,.23a77.67,77.67,0,0,1-5.8-155.12c2-.16,4-.23,6-.23h0m0-10c-2.23,0-4.49.08-6.75.25a87.68,87.68,0,0,0,6.56,175.1c2.23,0,4.49-.09,6.75-.26a87.67,87.67,0,0,0-6.56-175.09Z"/><path d="M115.34,86.38a56.51,56.51,0,0,1,4.22,112.86c-1.45.11-2.92.16-4.36.16A56.51,56.51,0,0,1,111,86.55c1.45-.12,2.91-.17,4.36-.17h0m0-10c-1.69,0-3.4.06-5.12.19a66.51,66.51,0,0,0,5,132.83c1.69,0,3.4-.06,5.12-.19a66.51,66.51,0,0,0-5-132.83Z"/></svg>