<svg id="Ebene_1" data-name="Ebene 1" xmlns="http://www.w3.org/2000/svg" viewBox="0 0 256 256"><defs><style>.cls-1{fill:none;stroke:#000;stroke-miterlimit:10;}</style></defs><title>explore</title><path d="M129.11,31a96,96,0,0,1,7.17,191.79c-2.45.18-4.94.28-7.4.28a96,96,0,0,1-7.17-191.79c2.45-.19,4.94-.28,7.4-.28h0m0-8c-2.65,0-5.33.1-8,.3a104,104,0,0,0,7.78,207.77c2.65,0,5.33-.1,8-.31A104,104,0,0,0,129.11,23Z"/><path d="M112.79,74.93a70.92,70.92,0,0,1,5.3,141.64c-1.82.14-3.66.21-5.47.21a70.93,70.93,0,0,1-5.3-141.65c1.82-.13,3.66-.2,5.47-.2h0m0-8c-2,0-4,.07-6.07.23a78.92,78.92,0,0,0,5.9,157.62q3,0,6.08-.24a78.92,78.92,0,0,0-5.91-157.61Z"/><circle class="cls-1" cx="129" cy="127.97" r="104.03"/></svg>