<svg id="Ebene_1" data-name="Ebene 1" xmlns="http://www.w3.org/2000/svg" viewBox="0 0 256 256"><title>warnings</title><path d="M134.67,51.17a2,2,0,0,1,2,2v89a2,2,0,0,1-2,2h-20a2,2,0,0,1-2-2v-89a2,2,0,0,1,2-2h20m0-10h-20a12,12,0,0,0-12,12v89a12,12,0,0,0,12,12h20a12,12,0,0,0,12-12v-89a12,12,0,0,0-12-12Z"/><path d="M134.69,180.09l8.05,16.1-16.1,8.05-8-16.1,16.1-8m.76-10.59a8.3,8.3,0,0,0-3.67.86L112.55,180a8.29,8.29,0,0,0-3.69,11.07l9.62,19.23a8.27,8.27,0,0,0,7.4,4.55,8.16,8.16,0,0,0,3.67-.86l19.23-9.62a8.27,8.27,0,0,0,3.69-11.07l-9.62-19.23a8.27,8.27,0,0,0-7.4-4.55Z"/></svg>