<svg id="Ebene_1" data-name="Ebene 1" xmlns="http://www.w3.org/2000/svg" viewBox="0 0 256 256"><title>warnings</title><path d="M134.67,49.17a4.06,4.06,0,0,1,4,4v89a4.06,4.06,0,0,1-4,4h-20a4.06,4.06,0,0,1-4-4v-89a4.05,4.05,0,0,1,4-4h20m0-8h-20a12,12,0,0,0-12,12v89a12,12,0,0,0,12,12h20a12,12,0,0,0,12-12v-89a12,12,0,0,0-12-12Z"/><path d="M135.45,177.5a.3.3,0,0,1,.25.13l9.61,19.23a.25.25,0,0,1,0,.19.24.24,0,0,1-.12.15L126,206.81a.13.13,0,0,1-.09,0,.28.28,0,0,1-.24-.13L116,187.47a.22.22,0,0,1,0-.19.24.24,0,0,1,.11-.15l19.23-9.61a.15.15,0,0,1,.09,0m0-8a8.3,8.3,0,0,0-3.67.86L112.55,180a8.29,8.29,0,0,0-3.69,11.07l9.62,19.23a8.27,8.27,0,0,0,7.4,4.55,8.16,8.16,0,0,0,3.67-.86l19.23-9.62a8.27,8.27,0,0,0,3.69-11.07l-9.62-19.23a8.27,8.27,0,0,0-7.4-4.55Z"/></svg>